<svg xmlns="http://www.w3.org/2000/svg" viewBox="0 0 1000 560">
  <rect width="1000" height="560" fill="#0d1117" rx="12"/>

  <!-- Title -->
  <text x="500" y="42" text-anchor="middle" fill="#e6edf3" font-family="system-ui, -apple-system, sans-serif" font-size="20" font-weight="700">MoE vs Dense Model：誰在真正節省算力？</text>
  <line x1="280" y1="54" x2="720" y2="54" stroke="#30363d" stroke-width="1"/>

  <!-- ===== LEFT: Dense Model ===== -->
  <text x="250" y="88" text-anchor="middle" fill="#00d4ff" font-family="system-ui, sans-serif" font-size="16" font-weight="700">傳統 Dense 模型</text>

  <!-- Input -->
  <rect x="175" y="105" width="150" height="36" rx="6" fill="#21262d" stroke="#484f58" stroke-width="1.5"/>
  <text x="250" y="128" text-anchor="middle" fill="#e6edf3" font-family="system-ui, sans-serif" font-size="13">Input Token</text>

  <!-- Arrow 1 -->
  <line x1="250" y1="141" x2="250" y2="165" stroke="#484f58" stroke-width="2" marker-end="url(#arrowDim)"/>

  <!-- Single FFN box (dense, all active) -->
  <rect x="130" y="165" width="240" height="100" rx="8" fill="#161b22" stroke="#ffa500" stroke-width="2"/>
  <text x="250" y="194" text-anchor="middle" fill="#ffa500" font-family="system-ui, sans-serif" font-size="14" font-weight="600">單一 FFN 層（Dense）</text>
  <text x="250" y="216" text-anchor="middle" fill="#8b949e" font-family="system-ui, sans-serif" font-size="12">全部參數啟動：7B 活躍</text>
  <text x="250" y="238" text-anchor="middle" fill="#8b949e" font-family="system-ui, sans-serif" font-size="12">每個 token 使用 100% 權重</text>

  <!-- All active indicator - green dots -->
  <circle cx="155" cy="240" r="4" fill="#00ff88" opacity="0.8"/>
  <circle cx="180" cy="240" r="4" fill="#00ff88" opacity="0.8"/>
  <circle cx="205" cy="240" r="4" fill="#00ff88" opacity="0.8"/>
  <circle cx="295" cy="240" r="4" fill="#00ff88" opacity="0.8"/>
  <circle cx="320" cy="240" r="4" fill="#00ff88" opacity="0.8"/>
  <circle cx="345" cy="240" r="4" fill="#00ff88" opacity="0.8"/>

  <!-- Arrow 2 -->
  <line x1="250" y1="265" x2="250" y2="295" stroke="#484f58" stroke-width="2" marker-end="url(#arrowDim)"/>

  <!-- Output -->
  <rect x="175" y="295" width="150" height="36" rx="6" fill="#21262d" stroke="#484f58" stroke-width="1.5"/>
  <text x="250" y="318" text-anchor="middle" fill="#e6edf3" font-family="system-ui, sans-serif" font-size="13">Output Token</text>

  <!-- Cost label -->
  <text x="250" y="365" text-anchor="middle" fill="#ff7b72" font-family="system-ui, sans-serif" font-size="12">💰 每 token 成本：7B 參數運算量</text>

  <!-- ===== RIGHT: MoE ===== -->
  <text x="750" y="88" text-anchor="middle" fill="#00d4ff" font-family="system-ui, sans-serif" font-size="16" font-weight="700">Mistral Small 4 — MoE</text>

  <!-- Input -->
  <rect x="675" y="105" width="150" height="36" rx="6" fill="#21262d" stroke="#484f58" stroke-width="1.5"/>
  <text x="750" y="128" text-anchor="middle" fill="#e6edf3" font-family="system-ui, sans-serif" font-size="13">Input Token</text>

  <!-- Arrow -->
  <line x1="750" y1="141" x2="750" y2="160" stroke="#484f58" stroke-width="2"/>

  <!-- Router / Gate -->
  <rect x="700" y="160" width="100" height="36" rx="6" fill="#00ff88" opacity="0.15" stroke="#00ff88" stroke-width="2"/>
  <text x="750" y="183" text-anchor="middle" fill="#00ff88" font-family="system-ui, sans-serif" font-size="13" font-weight="600">Router</text>

  <!-- Router arrows to experts -->
  <line x1="700" y1="196" x2="620" y2="240" stroke="#00ff88" stroke-width="1.5" opacity="0.5"/>
  <line x1="700" y1="196" x2="664" y2="240" stroke="#00ff88" stroke-width="1.5" opacity="0.5"/>
  <line x1="700" y1="196" x2="750" y2="240" stroke="#00ff88" stroke-width="1.5" opacity="0.8"/>
  <line x1="700" y1="196" x2="800" y2="240" stroke="#00ff88" stroke-width="1.5" opacity="0.8"/>
  <line x1="700" y1="196" x2="836" y2="240" stroke="#00ff88" stroke-width="1.5" opacity="0.5"/>
  <line x1="700" y1="196" x2="890" y2="240" stroke="#00ff88" stroke-width="1.5" opacity="0.5"/>

  <!-- Expert grid -->
  <!-- Row 1: 8 experts -->
  <rect x="610" y="240" width="32" height="28" rx="4" fill="#21262d" stroke="#30363d" stroke-width="1"/>
  <text x="626" y="259" text-anchor="middle" fill="#484f58" font-family="system-ui, sans-serif" font-size="8">E1</text>
  <rect x="648" y="240" width="32" height="28" rx="4" fill="#21262d" stroke="#30363d" stroke-width="1"/>
  <text x="664" y="259" text-anchor="middle" fill="#484f58" font-family="system-ui, sans-serif" font-size="8">E2</text>
  <rect x="686" y="240" width="32" height="28" rx="4" fill="#21262d" stroke="#30363d" stroke-width="1"/>
  <text x="702" y="259" text-anchor="middle" fill="#484f58" font-family="system-ui, sans-serif" font-size="8">E3</text>
  <rect x="724" y="240" width="32" height="28" rx="4" fill="#00d4ff" opacity="0.3" stroke="#00d4ff" stroke-width="2"/>
  <text x="740" y="259" text-anchor="middle" fill="#00d4ff" font-family="system-ui, sans-serif" font-size="8" font-weight="700">E4</text>
  <rect x="762" y="240" width="32" height="28" rx="4" fill="#21262d" stroke="#30363d" stroke-width="1"/>
  <text x="778" y="259" text-anchor="middle" fill="#484f58" font-family="system-ui, sans-serif" font-size="8">E5</text>
  <rect x="800" y="240" width="32" height="28" rx="4" fill="#21262d" stroke="#30363d" stroke-width="1"/>
  <text x="816" y="259" text-anchor="middle" fill="#484f58" font-family="system-ui, sans-serif" font-size="8">E6</text>
  <rect x="838" y="240" width="32" height="28" rx="4" fill="#21262d" stroke="#30363d" stroke-width="1"/>
  <text x="854" y="259" text-anchor="middle" fill="#484f58" font-family="system-ui, sans-serif" font-size="8">E7</text>
  <rect x="876" y="240" width="32" height="28" rx="4" fill="#21262d" stroke="#30363d" stroke-width="1"/>
  <text x="892" y="259" text-anchor="middle" fill="#484f58" font-family="system-ui, sans-serif" font-size="8">E8</text>

  <!-- Row 2 -->
  <rect x="610" y="272" width="32" height="28" rx="4" fill="#21262d" stroke="#30363d" stroke-width="1"/>
  <text x="626" y="291" text-anchor="middle" fill="#484f58" font-family="system-ui, sans-serif" font-size="8">E9</text>
  <rect x="648" y="272" width="32" height="28" rx="4" fill="#21262d" stroke="#30363d" stroke-width="1"/>
  <text x="664" y="291" text-anchor="middle" fill="#484f58" font-family="system-ui, sans-serif" font-size="8">E10</text>
  <rect x="686" y="272" width="32" height="28" rx="4" fill="#21262d" stroke="#30363d" stroke-width="1"/>
  <text x="702" y="291" text-anchor="middle" fill="#484f58" font-family="system-ui, sans-serif" font-size="8">E11</text>
  <rect x="724" y="272" width="32" height="28" rx="4" fill="#21262d" stroke="#30363d" stroke-width="1"/>
  <text x="740" y="291" text-anchor="middle" fill="#484f58" font-family="system-ui, sans-serif" font-size="8">E12</text>
  <rect x="762" y="272" width="32" height="28" rx="4" fill="#00d4ff" opacity="0.3" stroke="#00d4ff" stroke-width="2"/>
  <text x="778" y="291" text-anchor="middle" fill="#00d4ff" font-family="system-ui, sans-serif" font-size="8" font-weight="700">E13</text>
  <rect x="800" y="272" width="32" height="28" rx="4" fill="#21262d" stroke="#30363d" stroke-width="1"/>
  <text x="816" y="291" text-anchor="middle" fill="#484f58" font-family="system-ui, sans-serif" font-size="8">E14</text>
  <rect x="838" y="272" width="32" height="28" rx="4" fill="#21262d" stroke="#30363d" stroke-width="1"/>
  <text x="854" y="291" text-anchor="middle" fill="#484f58" font-family="system-ui, sans-serif" font-size="8">E15</text>
  <rect x="876" y="272" width="32" height="28" rx="4" fill="#21262d" stroke="#30363d" stroke-width="1"/>
  <text x="892" y="291" text-anchor="middle" fill="#484f58" font-family="system-ui, sans-serif" font-size="8">E16</text>

  <!-- Row 3 -->
  <rect x="610" y="304" width="32" height="28" rx="4" fill="#00d4ff" opacity="0.3" stroke="#00d4ff" stroke-width="2"/>
  <text x="626" y="323" text-anchor="middle" fill="#00d4ff" font-family="system-ui, sans-serif" font-size="8" font-weight="700">E17</text>
  <rect x="648" y="304" width="32" height="28" rx="4" fill="#21262d" stroke="#30363d" stroke-width="1"/>
  <text x="664" y="323" text-anchor="middle" fill="#484f58" font-family="system-ui, sans-serif" font-size="8">E18</text>
  <rect x="686" y="304" width="32" height="28" rx="4" fill="#21262d" stroke="#30363d" stroke-width="1"/>
  <text x="702" y="323" text-anchor="middle" fill="#484f58" font-family="system-ui, sans-serif" font-size="8">E19</text>
  <rect x="724" y="304" width="32" height="28" rx="4" fill="#21262d" stroke="#30363d" stroke-width="1"/>
  <text x="740" y="323" text-anchor="middle" fill="#484f58" font-family="system-ui, sans-serif" font-size="8">E20</text>
  <rect x="762" y="304" width="32" height="28" rx="4" fill="#21262d" stroke="#30363d" stroke-width="1"/>
  <text x="778" y="323" text-anchor="middle" fill="#484f58" font-family="system-ui, sans-serif" font-size="8">E21</text>
  <rect x="800" y="304" width="32" height="28" rx="4" fill="#21262d" stroke="#30363d" stroke-width="1"/>
  <text x="816" y="323" text-anchor="middle" fill="#484f58" font-family="system-ui, sans-serif" font-size="8">E22</text>
  <rect x="838" y="304" width="32" height="28" rx="4" fill="#21262d" stroke="#30363d" stroke-width="1"/>
  <text x="854" y="323" text-anchor="middle" fill="#484f58" font-family="system-ui, sans-serif" font-size="8">E23</text>
  <rect x="876" y="304" width="32" height="28" rx="4" fill="#21262d" stroke="#30363d" stroke-width="1"/>
  <text x="892" y="323" text-anchor="middle" fill="#484f58" font-family="system-ui, sans-serif" font-size="8">E24</text>

  <!-- Row 4 (partial) -->
  <rect x="610" y="336" width="32" height="28" rx="4" fill="#21262d" stroke="#30363d" stroke-width="1"/>
  <text x="626" y="355" text-anchor="middle" fill="#484f58" font-family="system-ui, sans-serif" font-size="8">...</text>
  <rect x="648" y="336" width="32" height="28" rx="4" fill="#21262d" stroke="#30363d" stroke-width="1"/>
  <text x="664" y="355" text-anchor="middle" fill="#484f58" font-family="system-ui, sans-serif" font-size="8">...</text>
  <rect x="686" y="336" width="32" height="28" rx="4" fill="#21262d" stroke="#30363d" stroke-width="1"/>
  <text x="702" y="355" text-anchor="middle" fill="#484f58" font-family="system-ui, sans-serif" font-size="8">...</text>
  <rect x="724" y="336" width="32" height="28" rx="4" fill="#21262d" stroke="#30363d" stroke-width="1"/>
  <text x="740" y="355" text-anchor="middle" fill="#484f58" font-family="system-ui, sans-serif" font-size="8">...</text>
  <rect x="762" y="336" width="32" height="28" rx="4" fill="#21262d" stroke="#30363d" stroke-width="1"/>
  <text x="778" y="355" text-anchor="middle" fill="#484f58" font-family="system-ui, sans-serif" font-size="8">...</text>
  <rect x="800" y="336" width="32" height="28" rx="4" fill="#21262d" stroke="#30363d" stroke-width="1"/>
  <text x="816" y="355" text-anchor="middle" fill="#484f58" font-family="system-ui, sans-serif" font-size="8">...</text>
  <rect x="838" y="336" width="32" height="28" rx="4" fill="#21262d" stroke="#30363d" stroke-width="1"/>
  <text x="854" y="355" text-anchor="middle" fill="#484f58" font-family="system-ui, sans-serif" font-size="8">...</text>
  <rect x="876" y="336" width="32" height="28" rx="4" fill="#21262d" stroke="#30363d" stroke-width="1"/>
  <text x="892" y="355" text-anchor="middle" fill="#484f58" font-family="system-ui, sans-serif" font-size="8">...</text>

  <!-- Expert count label -->
  <text x="750" y="380" text-anchor="middle" fill="#8b949e" font-family="system-ui, sans-serif" font-size="12">128 個專家（MoE層），每 token 選 4 個啟動</text>

  <!-- Active experts legend -->
  <rect x="615" y="390" width="12" height="12" rx="2" fill="#00d4ff" opacity="0.3" stroke="#00d4ff" stroke-width="1.5"/>
  <text x="631" y="401" fill="#00d4ff" font-family="system-ui, sans-serif" font-size="11">= 活躍專家（4/token）</text>
  <rect x="750" y="390" width="12" height="12" rx="2" fill="#21262d" stroke="#30363d" stroke-width="1"/>
  <text x="766" y="401" fill="#484f58" font-family="system-ui, sans-serif" font-size="11">= 休眠專家（124）</text>

  <!-- Arrow from experts to output -->
  <line x1="750" y1="368" x2="750" y2="410" stroke="#484f58" stroke-width="2"/>

  <!-- Combine layer -->
  <rect x="680" y="410" width="140" height="30" rx="6" fill="#ffa500" opacity="0.1" stroke="#ffa500" stroke-width="1.5"/>
  <text x="750" y="430" text-anchor="middle" fill="#ffa500" font-family="system-ui, sans-serif" font-size="11">加權組合 4 專家輸出</text>

  <!-- Arrow -->
  <line x1="750" y1="440" x2="750" y2="460" stroke="#484f58" stroke-width="2"/>

  <!-- Output -->
  <rect x="675" y="460" width="150" height="36" rx="6" fill="#21262d" stroke="#484f58" stroke-width="1.5"/>
  <text x="750" y="483" text-anchor="middle" fill="#e6edf3" font-family="system-ui, sans-serif" font-size="13">Output Token</text>

  <!-- Cost label -->
  <text x="750" y="525" text-anchor="middle" fill="#7ee07f" font-family="system-ui, sans-serif" font-size="12">💰 每 token 成本：6B 參數運算量（119B 總參數）</text>

  <!-- Divider line -->
  <line x1="500" y1="80" x2="500" y2="540" stroke="#30363d" stroke-width="1" stroke-dasharray="4,4"/>

  <!-- Arrow markers -->
  <defs>
    <marker id="arrowDim" viewBox="0 0 10 10" refX="5" refY="5" markerWidth="6" markerHeight="6" orient="auto-start-reverse">
      <path d="M 0 0 L 10 5 L 0 10 z" fill="#484f58"/>
    </marker>
  </defs>

  <!-- Bottom insight -->
  <rect x="100" y="400" width="400" height="110" rx="8" fill="#ffa500" opacity="0.05" stroke="#ffa500" stroke-width="1" stroke-dasharray="4,3"/>
  <text x="300" y="425" text-anchor="middle" fill="#ffa500" font-family="system-ui, sans-serif" font-size="12" font-weight="600">⚠ 城武追問</text>
  <text x="115" y="448" fill="#e6edf3" font-family="system-ui, sans-serif" font-size="11">Router 本身也是運算成本。128 選 4 的調度邏輯</text>
  <text x="115" y="468" fill="#e6edf3" font-family="system-ui, sans-serif" font-size="11">在簡單 query 上是否值得？configurable reasoning</text>
  <text x="115" y="488" fill="#e6edf3" font-family="system-ui, sans-serif" font-size="11">effort 參數的存在，暗示團隊自己也這麼懷疑。</text>

  <!-- Bottom labels -->
  <text x="500" y="555" text-anchor="middle" fill="#484f58" font-family="system-ui, sans-serif" font-size="10">資料來源：Mistral AI 官方技術文件（2026）</text>
</svg>
